<?xml version="1.0" encoding="UTF-8"?>
<!DOCTYPE svg PUBLIC "-//W3C//DTD SVG 1.1//EN" "http://www.w3.org/Graphics/SVG/1.1/DTD/svg11.dtd">
<svg xmlns="http://www.w3.org/2000/svg" version="1.1" width="400px" height="500px" style="shape-rendering:geometricPrecision; text-rendering:geometricPrecision; image-rendering:optimizeQuality; fill-rule:evenodd; clip-rule:evenodd" xmlns:xlink="http://www.w3.org/1999/xlink">
<g><path style="opacity:0.973" fill="#fffdfd" d="M 180.5,1.5 C 258.164,-2.75627 317.331,27.9104 358,93.5C 381.285,136.775 387.618,182.441 377,230.5C 372.991,246.193 367.991,261.526 362,276.5C 347.595,304.321 330.928,330.654 312,355.5C 274.97,402.904 237.47,449.904 199.5,496.5C 161.53,449.904 124.03,402.904 87,355.5C 68.0717,330.654 51.4051,304.321 37,276.5C 31.0089,261.526 26.0089,246.193 22,230.5C 7.4206,158.25 26.5873,96.7499 79.5,46C 108.759,21.1905 142.425,6.35716 180.5,1.5 Z"/></g>
<g><path style="opacity:1" fill="#ff6f06" d="M 243.5,195.5 C 243.833,159.161 243.5,122.827 242.5,86.5C 241.893,86.6236 241.56,86.9569 241.5,87.5C 201.11,103.631 160.777,119.965 120.5,136.5C 119.5,192.496 119.167,248.496 119.5,304.5C 103.163,304.667 86.8299,304.5 70.5,304C 41.9977,261.826 29.4977,215.326 33,164.5C 44.4145,96.7715 81.9145,50.2715 145.5,25C 210.849,5.93071 268.349,19.4307 318,65.5C 360.849,112.017 375.516,166.351 362,228.5C 354.889,255.513 343.722,280.68 328.5,304C 312.17,304.5 295.837,304.667 279.5,304.5C 279.833,273.16 279.5,241.826 278.5,210.5C 266.628,205.724 254.961,200.724 243.5,195.5 Z"/></g>
<g><path style="opacity:1" fill="#fffefe" d="M 258.5,186.5 C 258.833,145.828 258.5,105.161 257.5,64.5C 256.893,64.6236 256.56,64.9569 256.5,65.5C 206.111,85.6314 155.777,105.965 105.5,126.5C 104.5,180.829 104.167,235.163 104.5,289.5C 95.5822,289.817 86.7489,289.484 78,288.5C 58.6278,257.051 48.1278,222.884 46.5,186C 49.0163,122.558 78.0163,75.8914 133.5,46C 167.291,30.5302 202.291,27.1969 238.5,36C 287.597,51.1009 322.097,82.2676 342,129.5C 354.789,164.147 355.789,199.147 345,234.5C 339.18,253.473 331.18,271.473 321,288.5C 312.251,289.484 303.418,289.817 294.5,289.5C 294.833,259.826 294.5,230.159 293.5,200.5C 281.925,195.544 270.258,190.877 258.5,186.5 Z"/></g>
<g><path style="opacity:1" fill="#ffd9be" d="M 256.5,65.5 C 256.56,64.9569 256.893,64.6236 257.5,64.5C 258.5,105.161 258.833,145.828 258.5,186.5C 257.833,146.167 257.167,105.833 256.5,65.5 Z"/></g>
<g><path style="opacity:1" fill="#ffc79e" d="M 241.5,87.5 C 241.56,86.9569 241.893,86.6236 242.5,86.5C 243.5,122.827 243.833,159.161 243.5,195.5C 242.833,159.5 242.167,123.5 241.5,87.5 Z"/></g>
<g><path style="opacity:1" fill="#ff6d01" d="M 264.5,220.5 C 264.5,253.5 264.5,286.5 264.5,319.5C 282.5,319.5 300.5,319.5 318.5,319.5C 313.257,327.645 307.757,335.645 302,343.5C 267.822,386.539 233.656,429.539 199.5,472.5C 167.887,432.38 136.054,392.38 104,352.5C 95.6661,341.823 87.8327,330.823 80.5,319.5C 98.5,319.5 116.5,319.5 134.5,319.5C 134.5,261.833 134.5,204.167 134.5,146.5C 165.713,133.978 196.879,121.311 228,108.5C 228.5,135.498 228.667,162.498 228.5,189.5C 216.567,185.132 204.733,180.466 193,175.5C 192.5,223.499 192.333,271.499 192.5,319.5C 197.167,319.5 201.833,319.5 206.5,319.5C 206.5,278.833 206.5,238.167 206.5,197.5C 225.985,204.773 245.318,212.44 264.5,220.5 Z"/></g>
<g><path style="opacity:1" fill="#ffb781" d="M 134.5,146.5 C 134.5,204.167 134.5,261.833 134.5,319.5C 116.5,319.5 98.5,319.5 80.5,319.5C 97.9921,318.503 115.659,318.17 133.5,318.5C 133.168,260.998 133.501,203.664 134.5,146.5 Z"/></g>
<g><path style="opacity:1" fill="#ffb782" d="M 264.5,220.5 C 265.498,252.996 265.832,285.662 265.5,318.5C 283.341,318.17 301.008,318.503 318.5,319.5C 300.5,319.5 282.5,319.5 264.5,319.5C 264.5,286.5 264.5,253.5 264.5,220.5 Z"/></g>
</svg>
