<?xml version="1.0" encoding="utf-8"?>
<!-- Generator: Adobe Illustrator 17.1.0, SVG Export Plug-In . SVG Version: 6.00 Build 0)  -->
<!DOCTYPE svg PUBLIC "-//W3C//DTD SVG 1.1//EN" "http://www.w3.org/Graphics/SVG/1.1/DTD/svg11.dtd">
<svg version="1.1" id="Layer_1" xmlns="http://www.w3.org/2000/svg" xmlns:xlink="http://www.w3.org/1999/xlink" x="0px" y="0px"
	 width="189px" height="64px" viewBox="0 0 189 64" enable-background="new 0 0 189 64" xml:space="preserve">
<g>
	<path fill="#FF6D00" d="M33,42V28.7l-8-3.2V42h-2V22.5l5,2v-11l-13,5.2V42H7.6c0.7,1,1.5,2.1,2.2,3.2L24,62.8l14.2-17.7
		c0.8-1.1,1.5-2.1,2.2-3.2H33z"/>
	<path fill="#FF6D00" d="M5.1,38c0.1,0.2,0.2,0.4,0.3,0.5c0.2,0.3,0.4,0.7,0.6,1c0.1,0.2,0.2,0.3,0.3,0.5H13V17.3l17-6.8v14.8l5,2
		V40h6.7c0.1-0.2,0.2-0.3,0.3-0.5c0.2-0.3,0.4-0.7,0.6-1c0.1-0.2,0.2-0.4,0.3-0.5h0c2.6-4.5,4.1-9.1,4.1-14C47,11.3,36.7,1,24,1
		C11.3,1,1,11.3,1,24C1,28.9,2.5,33.5,5.1,38L5.1,38z M3,24C3,12.4,12.4,3,24,3s21,9.4,21,21c0,4.6-1.4,9-4.4,14H37V26l-5-2V7.6
		L11,16v22H7.4C4.4,32.9,3,28.5,3,24z"/>
</g>
<g>
	<path fill="#FF6D00" d="M58,31l0,11h-3V23h2.7l2.3,5.7c0.2,0.5,0.4,0.9,0.5,1.4c0.2,0.5,0.4,0.9,0.6,1.4l1,2.6c0,0,0.1,0,0.1,0
		c0,0,0,0,0.1,0V23H65v19l-2.5,0l-2.3-5.6c-0.4-0.9-0.7-1.8-1.1-2.7s-0.7-1.8-1-2.7H58z"/>
	<path fill="#FF6D00" d="M73,25.8V42H70V25.8h-3V23h9v2.8H73z"/>
	<path d="M82.3,23c1.7,0,3,0.5,3.8,1.4c0.8,0.9,1.2,2.4,1.2,4.4c0,0.9-0.1,1.7-0.2,2.4c-0.2,0.7-0.4,1.3-0.8,1.9
		c-0.4,0.5-0.9,0.9-1.6,1.2c-0.6,0.3-1.5,0.4-2.4,0.4H81V42h-2.9V23H82.3z M81,25.8v6.1h1c0.9,0,1.5-0.3,1.9-0.8
		c0.4-0.5,0.5-1.3,0.5-2.3c0-0.9-0.2-1.7-0.5-2.2c-0.3-0.5-1-0.8-1.9-0.8H81z"/>
	<path d="M94.5,23c1.5,0,2.8,0.4,3.6,1.3c0.9,0.9,1.3,2.3,1.3,4.2c0,1.2-0.2,2.2-0.5,3c-0.3,0.8-0.9,1.5-1.8,1.9l2.8,8.5h-3
		l-2.5-7.8h-1.4V42h-2.9V23H94.5z M93.1,25.8v5.6h1.2c0.8,0,1.3-0.2,1.7-0.7c0.4-0.4,0.5-1.2,0.5-2.1c0-0.9-0.2-1.5-0.5-2
		c-0.4-0.5-0.9-0.7-1.8-0.7H93.1z"/>
	<path d="M111.7,37.1c0,1.7-0.4,2.9-1.1,3.7s-1.9,1.3-3.5,1.3c-1.6,0-2.8-0.4-3.5-1.2c-0.7-0.8-1.1-2-1.1-3.5v-9.5
		c0-0.7,0.1-1.4,0.3-2c0.2-0.6,0.4-1.1,0.8-1.6c0.4-0.4,0.8-0.8,1.4-1c0.6-0.2,1.3-0.4,2.1-0.4c0.9,0,1.6,0.1,2.2,0.3
		c0.6,0.2,1.1,0.6,1.4,1c0.4,0.4,0.6,1,0.8,1.6c0.2,0.6,0.2,1.3,0.2,2.1V37.1z M108.8,27.7c0-0.5-0.1-1-0.3-1.4
		c-0.2-0.4-0.7-0.6-1.3-0.6c-0.3,0-0.6,0.1-0.8,0.2c-0.2,0.2-0.4,0.3-0.5,0.6c-0.1,0.2-0.2,0.5-0.2,0.8c0,0.3-0.1,0.5-0.1,0.8v9.5
		c0,0.5,0.1,0.9,0.4,1.3c0.2,0.4,0.7,0.6,1.3,0.6c0.6,0,1-0.2,1.3-0.6s0.4-0.9,0.4-1.5V27.7z"/>
	<path d="M119.4,23c1.7,0,3,0.5,3.8,1.4c0.8,0.9,1.2,2.4,1.2,4.4c0,0.9-0.1,1.7-0.2,2.4c-0.2,0.7-0.4,1.3-0.8,1.9
		c-0.4,0.5-0.9,0.9-1.6,1.2c-0.6,0.3-1.5,0.4-2.4,0.4h-1.2V42h-2.9V23H119.4z M118.2,25.8v6.1h1c0.9,0,1.5-0.3,1.9-0.8
		c0.4-0.5,0.5-1.3,0.5-2.3c0-0.9-0.2-1.7-0.5-2.2c-0.3-0.5-1-0.8-1.9-0.8H118.2z"/>
	<path d="M127,42V23h8.4v2.8h-5.5V31h4.8v2.8h-4.8v5.5h5.5V42H127z"/>
	<path d="M142.8,23c1.5,0,2.8,0.4,3.6,1.3c0.9,0.9,1.3,2.3,1.3,4.2c0,1.2-0.2,2.2-0.5,3c-0.3,0.8-0.9,1.5-1.8,1.9l2.8,8.5h-3
		l-2.5-7.8h-1.4V42h-2.9V23H142.8z M141.4,25.8v5.6h1.2c0.8,0,1.3-0.2,1.7-0.7c0.4-0.4,0.5-1.2,0.5-2.1c0-0.9-0.2-1.5-0.5-2
		c-0.4-0.5-0.9-0.7-1.8-0.7H141.4z"/>
	<path d="M155.6,25.8V42h-2.9V25.8h-3.1V23h9v2.8H155.6z"/>
	<path d="M161.1,42V23h2.9v19H161.1z"/>
	<path d="M167.8,42V23h8.4v2.8h-5.5V31h4.8v2.8h-4.8v5.5h5.5V42H167.8z"/>
	<path d="M187.9,36.6c0,0.9-0.1,1.6-0.2,2.3c-0.2,0.7-0.4,1.3-0.8,1.7c-0.4,0.5-0.9,0.9-1.5,1.1c-0.6,0.3-1.4,0.4-2.3,0.4
		c-0.8,0-1.5-0.1-2.1-0.4c-0.6-0.2-1.1-0.6-1.5-1c-0.4-0.4-0.7-0.9-0.8-1.5c-0.2-0.6-0.3-1.2-0.3-1.8l2.9-0.6c0,0.7,0.2,1.3,0.4,1.7
		c0.2,0.4,0.7,0.7,1.4,0.7c0.4,0,0.7-0.1,0.9-0.2c0.2-0.2,0.4-0.4,0.5-0.6c0.1-0.3,0.2-0.5,0.2-0.9c0-0.3,0-0.7,0-1
		c0-0.5,0-0.8-0.1-1.1c-0.1-0.3-0.2-0.6-0.3-0.8c-0.2-0.2-0.4-0.4-0.7-0.6c-0.3-0.2-0.6-0.3-1.1-0.5c-0.9-0.4-1.6-0.8-2.2-1.2
		c-0.6-0.4-1-0.8-1.3-1.3c-0.3-0.4-0.5-0.9-0.6-1.4c-0.1-0.5-0.1-1.1-0.1-1.7c0-0.8,0.1-1.5,0.3-2.1c0.2-0.6,0.5-1.2,0.8-1.7
		c0.4-0.5,0.9-0.8,1.5-1.1c0.6-0.3,1.3-0.4,2.1-0.4c0.9,0,1.6,0.1,2.2,0.4c0.6,0.3,1,0.6,1.4,1.1c0.3,0.4,0.6,0.9,0.7,1.4
		c0.1,0.5,0.2,1,0.2,1.5L185,28c0-0.7-0.1-1.3-0.4-1.7c-0.2-0.4-0.7-0.7-1.4-0.7c-0.4,0-0.6,0.1-0.9,0.2c-0.2,0.1-0.4,0.3-0.5,0.6
		c-0.1,0.2-0.2,0.5-0.2,0.8c0,0.3-0.1,0.5-0.1,0.8c0,0.3,0,0.6,0.1,0.9c0,0.2,0.1,0.5,0.3,0.7c0.2,0.2,0.4,0.4,0.8,0.7
		c0.3,0.2,0.8,0.4,1.4,0.7c0.8,0.3,1.5,0.7,2,1c0.5,0.4,0.9,0.8,1.1,1.2c0.3,0.4,0.4,0.9,0.5,1.5C187.9,35.3,187.9,35.9,187.9,36.6z
		"/>
</g>
</svg>
